<svg width="745" height="406" viewBox="0 0 745 406" fill="none" xmlns="http://www.w3.org/2000/svg">
<g clip-path="url(#clip0_8_516)">
<path d="M397.992 384.964C406.568 384.964 413.595 381.244 418.245 374.837V383.414H427.545V303.848H418.245V335.674C413.595 329.267 406.568 325.548 397.992 325.548C382.595 325.548 371.849 337.741 371.849 355.204C371.849 372.771 382.595 384.964 397.992 384.964ZM399.955 376.801C389.105 376.801 381.562 367.914 381.562 355.204C381.562 342.494 389.105 333.711 399.955 333.711C410.702 333.711 418.245 342.494 418.245 355.204C418.245 367.914 410.702 376.801 399.955 376.801Z" fill="#F79138"/>
<path d="M457.583 315.523C460.89 315.523 463.576 312.837 463.576 309.53C463.576 306.223 460.89 303.537 457.583 303.537C454.276 303.537 451.59 306.223 451.59 309.53C451.59 312.837 454.276 315.523 457.583 315.523ZM452.933 383.413H462.233V327.096H452.933V383.413Z" fill="#F79138"/>
<path d="M509.735 405.63C525.131 405.63 539.288 397.776 539.288 383.517V327.097H529.988V335.157C525.441 329.164 518.518 325.547 510.252 325.547C495.165 325.547 484.625 337.327 484.625 354.17C484.625 371.117 495.165 382.897 510.252 382.897C518.518 382.897 525.441 379.28 529.988 373.287V383.413C529.988 393.023 520.688 397.466 510.148 397.466C504.982 397.466 499.608 396.536 494.752 394.47L493.202 402.53C498.472 404.7 504.258 405.63 509.735 405.63ZM512.215 374.733C501.675 374.733 494.338 366.26 494.338 354.17C494.338 342.08 501.675 333.71 512.215 333.71C522.651 333.71 529.988 342.08 529.988 354.17C529.988 366.26 522.651 374.733 512.215 374.733Z" fill="#F79138"/>
<path d="M569.327 315.523C572.633 315.523 575.32 312.837 575.32 309.53C575.32 306.223 572.633 303.537 569.327 303.537C566.02 303.537 563.333 306.223 563.333 309.53C563.333 312.837 566.02 315.523 569.327 315.523ZM564.677 383.413H573.977V327.096H564.677V383.413Z" fill="#F79138"/>
<path d="M623.855 384.963C627.575 384.963 633.568 384.136 637.392 382.38V374.32C633.052 376.18 628.505 376.8 625.198 376.8C618.792 376.8 614.968 373.7 614.968 367.706L614.865 335.053H636.255V327.097H614.865V310.77H605.565V327.097H593.269V335.053H605.565V368.43C605.565 378.35 612.902 384.963 623.855 384.963Z" fill="#F79138"/>
<path d="M680.14 384.963C688.717 384.963 695.743 381.243 700.393 374.837V383.413H709.693V327.097H700.393V335.673C695.743 329.267 689.234 325.547 680.657 325.547C665.26 325.547 653.997 337.74 653.997 355.203C653.997 372.77 664.744 384.963 680.14 384.963ZM682.104 376.8C671.254 376.8 663.71 367.913 663.71 355.203C663.71 342.493 671.254 333.71 682.104 333.71C692.85 333.71 700.393 342.493 700.393 355.203C700.393 367.913 692.85 376.8 682.104 376.8Z" fill="#F79138"/>
<path d="M735.082 383.413H744.382V303.847H735.082V383.413Z" fill="#F79138"/>
<path fill-rule="evenodd" clip-rule="evenodd" d="M167.183 59.7507L328.586 376.668C329.447 378.36 328.774 380.43 327.082 381.292C326.599 381.538 326.064 381.667 325.522 381.667H268.517C265.28 381.667 262.318 379.848 260.853 376.962L167.187 192.483C166.327 190.79 164.257 190.115 162.564 190.974C161.914 191.305 161.385 191.833 161.055 192.484L66.9702 377.897C65.797 380.209 63.4231 381.665 60.8304 381.662L4.57911 381.599C2.0473 381.596 -0.00283837 379.541 2.94981e-06 377.009C0.000812716 376.288 0.171938 375.577 0.499458 374.934L161.056 59.7504C161.918 58.0584 163.988 57.3855 165.68 58.2474C166.327 58.5771 166.854 59.1034 167.183 59.7507Z" fill="#1D98B6"/>
<path fill-rule="evenodd" clip-rule="evenodd" d="M101.861 340.505C122.858 330.944 138.262 323.495 148.073 318.156C279.484 246.652 347.658 170.972 353.544 93.7065C358.535 28.1849 295.085 5.33144 180.776 32.1253C155.612 38.0238 115.861 56.1421 61.5229 86.4803C69.4954 78.6511 75.5111 73.3224 79.5701 70.4941C117.293 44.21 153.698 28.9005 183.159 17.9275C240.23 -3.3291 299.309 -4.80673 342.073 8.87584C387.747 23.4896 414.415 83.7865 392.414 145.094C356.774 244.404 267.104 322.756 123.403 380.149C121.23 381.017 118.751 380.108 117.655 378.04L100.25 345.245C99.3597 343.568 99.998 341.487 101.675 340.597C101.736 340.564 101.798 340.534 101.861 340.505Z" fill="#F79138"/>
<path d="M408.809 288.524C420.774 288.524 431.664 282.985 438.26 274.092V286.338H456.207V206.889H438.107V218.988C431.664 210.096 421.387 204.702 409.269 204.702C386.874 204.702 370.769 221.758 370.769 246.54C370.769 271.468 386.261 288.524 408.809 288.524ZM413.871 273.509C399.452 273.509 389.635 262.576 389.635 246.54C389.635 230.651 399.452 219.717 413.871 219.717C428.136 219.717 438.107 230.651 438.107 246.54C438.107 262.576 428.136 273.509 413.871 273.509Z" fill="#1D98B6" stroke="#1D98B6" stroke-width="1.14606"/>
<path d="M500.331 286.338H519.865L553.394 206.889H534.735L510.098 267.824L485.462 206.889H466.802L500.331 286.338Z" fill="#1D98B6" stroke="#1D98B6" stroke-width="1.14606"/>
<path d="M571.711 192.602C577.397 192.602 582.062 188.083 581.916 182.398C581.916 176.712 577.397 172.193 571.711 172.193C566.026 172.193 561.507 176.712 561.361 182.398C561.361 188.083 566.026 192.602 571.711 192.602ZM563.11 286.337H580.312V206.888H563.11V286.337Z" fill="#1D98B6" stroke="#1D98B6" stroke-width="1.14606"/>
<path d="M621.262 220.457V206.899H604.06V286.348H621.262V250.341C621.262 233.722 631.175 221.623 647.939 221.623C649.397 221.623 650.855 221.623 653.479 222.06V204.713C639.047 204.421 628.114 210.252 621.262 220.457Z" fill="#1D98B6" stroke="#1D98B6" stroke-width="1.14606"/>
<path d="M697.462 288.524C709.306 288.524 720.088 282.985 726.618 274.092V286.338H744.385V206.889H726.466V218.988C720.088 210.096 709.914 204.702 697.917 204.702C675.746 204.702 659.802 221.758 659.802 246.54C659.802 271.468 675.139 288.524 697.462 288.524ZM702.473 273.509C688.199 273.509 678.48 262.576 678.48 246.54C678.48 230.651 688.199 219.717 702.473 219.717C716.596 219.717 726.466 230.651 726.466 246.54C726.466 262.576 716.596 273.509 702.473 273.509Z" fill="#1D98B6" stroke="#1D98B6" stroke-width="1.14606"/>
</g>
<defs>
<clipPath id="clip0_8_516">
<rect width="744.958" height="405.629" fill="white"/>
</clipPath>
</defs>
</svg>
